<svg width="116" height="26" viewBox="0 0 116 26" fill="none" xmlns="http://www.w3.org/2000/svg">
<g clip-path="url(#clip0_624_806)">
<path d="M3.35916 19.656C5.33484 20.5456 7.93814 21.004 10.244 21.004C11.9577 21.004 15.7481 21.004 16.0291 19.4131C16.242 18.2124 13.0765 18.0241 10.8662 17.7813C6.97486 17.3501 1.8583 16.4605 2.73971 11.4531C3.62113 6.44568 9.40353 5.32959 13.4122 5.32959C16.8805 5.32959 20.1879 5.77439 22.9986 7.41988L19.6394 11.3194C17.59 10.3888 15.2187 10.0778 12.8419 10.0778C11.4529 10.0778 8.75133 10.0095 8.49755 11.4531C8.2656 12.7738 10.5223 12.8966 12.7846 13.1532C16.7004 13.598 22.7039 14.2065 21.7842 19.4131C20.7937 25.04 13.9197 25.7549 9.67095 25.7549C6.65013 25.7549 2.27308 25.3238 -0.00549316 23.5555L3.3537 19.656H3.35916Z" fill="#ED4A25"/>
<path d="M21.7188 25.752L25.3208 5.32666H31.0268L29.676 12.9892H40.092L41.4428 5.32666H47.1488L43.5467 25.752H37.8407L39.2542 17.7374H28.8383L27.4247 25.752H21.7188Z" fill="#ED4A25"/>
<path d="M49.1381 5.32666H54.8441L51.242 25.752H45.536L49.1381 5.32666Z" fill="#ED4A25"/>
<path d="M53.234 25.752L56.8361 5.32666H69.828C74.5762 5.32666 77.919 7.4879 76.983 12.7955C76.0471 18.1031 71.9429 20.2643 67.1947 20.2643H59.9224L58.94 25.752H53.234ZM60.771 15.3742H68.057C69.7162 15.3742 70.9114 14.5692 71.2225 12.7982C71.5336 11.0272 70.6249 10.2222 68.9657 10.2222H61.6797L60.771 15.377V15.3742Z" fill="#ED4A25"/>
<path d="M82.8282 21.0038H92.1499L91.3122 25.752H76.2817L79.8838 5.32666H85.5898L82.8255 21.0038H82.8282Z" fill="#ED4A25"/>
<path d="M109.382 7.40066L115.33 7.41703C115.86 7.41703 116.125 8.05831 115.751 8.43216L107.594 16.5886L115.767 24.7615C116.141 25.1353 115.876 25.7766 115.347 25.7766H109.376C108.787 25.7766 108.222 25.5419 107.804 25.1272L99.9726 17.2954C99.5824 16.9052 99.5824 16.2721 99.9726 15.8819L107.804 8.05012C108.222 7.63261 108.789 7.39793 109.382 7.40066Z" fill="#0A0808"/>
<path d="M94.3443 0L88.3954 0.016373C87.866 0.016373 87.6013 0.657649 87.9752 1.0315L96.1317 9.18798L87.9588 17.3608C87.585 17.7347 87.8497 18.376 88.3791 18.376H94.3497C94.9392 18.376 95.504 18.1413 95.9216 17.7265L103.753 9.89475C104.144 9.50453 104.144 8.87144 103.753 8.48121L95.9216 0.649462C95.5013 0.231951 94.9337 0 94.3443 0Z" fill="#0A0808"/>
</g>
<defs>
<clipPath id="clip0_624_806">
<rect width="116" height="25.7766" fill="white"/>
</clipPath>
</defs>
</svg>
