<svg width="84" height="84" viewBox="0 0 84 84" fill="none" xmlns="http://www.w3.org/2000/svg">
<path d="M78.75 24.9375H65.6118C65.3681 24.9375 65.1291 25.0054 64.9218 25.1335C64.7145 25.2617 64.5469 25.445 64.4379 25.663C64.3289 25.881 64.2827 26.1251 64.3046 26.3679C64.3265 26.6106 64.4156 26.8425 64.5618 27.0375C65.5164 28.3041 66.0989 29.8118 66.2441 31.3911C66.3892 32.9705 66.0913 34.5591 65.3836 35.9785C64.676 37.3979 63.5866 38.5919 62.238 39.4265C60.8893 40.2611 59.3347 40.7032 57.7486 40.7032C56.1626 40.7032 54.608 40.2611 53.2593 39.4265C51.9106 38.5919 50.8213 37.3979 50.1137 35.9785C49.406 34.5591 49.108 32.9705 49.2532 31.3911C49.3984 29.8118 49.9809 28.3041 50.9355 27.0375C51.0817 26.8425 51.1708 26.6106 51.1926 26.3679C51.2145 26.1251 51.1684 25.881 51.0594 25.663C50.9504 25.445 50.7828 25.2617 50.5755 25.1335C50.3681 25.0054 50.1292 24.9375 49.8855 24.9375H36.75C35.7057 24.9375 34.7041 25.3523 33.9657 26.0908C33.2273 26.8292 32.8125 27.8307 32.8125 28.875V39.711C31.1132 38.9418 29.2482 38.6108 27.3881 38.7485C25.5279 38.8862 23.732 39.4881 22.1645 40.4991C20.5971 41.5101 19.3081 42.898 18.4155 44.5358C17.523 46.1736 17.0553 48.0091 17.0553 49.8743C17.0553 51.7396 17.523 53.5751 18.4155 55.2129C19.3081 56.8507 20.5971 58.2386 22.1645 59.2496C23.732 60.2606 25.5279 60.8625 27.3881 61.0002C29.2482 61.1378 31.1132 60.8069 32.8125 60.0377V70.875C32.8125 71.9193 33.2273 72.9208 33.9657 73.6592C34.7041 74.3977 35.7057 74.8125 36.75 74.8125H78.75C79.7942 74.8125 80.7958 74.3977 81.5342 73.6592C82.2726 72.9208 82.6875 71.9193 82.6875 70.875V28.875C82.6875 27.8307 82.2726 26.8292 81.5342 26.0908C80.7958 25.3523 79.7942 24.9375 78.75 24.9375ZM77.4375 66.9375C77.4375 67.6337 77.1609 68.3014 76.6686 68.7937C76.1763 69.2859 75.5086 69.5625 74.8125 69.5625H69.5625C69.2144 69.5625 68.8805 69.4242 68.6344 69.1781C68.3882 68.9319 68.25 68.5981 68.25 68.25C68.25 67.9019 68.3882 67.5681 68.6344 67.3219C68.8805 67.0758 69.2144 66.9375 69.5625 66.9375H74.8125V60.8803C74.8125 60.5322 74.9507 60.1984 75.1969 59.9522C75.443 59.7061 75.7769 59.5678 76.125 59.5678C76.473 59.5678 76.8069 59.7061 77.053 59.9522C77.2992 60.1984 77.4375 60.5322 77.4375 60.8803V66.9375Z" fill="#ED4A25"/>
<path d="M66.7945 29.8581C66.3644 27.5193 65.046 25.4377 63.1153 24.0495C61.1846 22.6612 58.7915 22.074 56.4376 22.4109V13.125C56.4376 12.0807 56.0227 11.0792 55.2843 10.3408C54.5459 9.60234 53.5443 9.1875 52.5001 9.1875H41.5433C41.3334 9.18748 41.1265 9.23783 40.94 9.33432C40.7536 9.4308 40.593 9.57061 40.4717 9.742C40.3505 9.91339 40.2721 10.1114 40.2432 10.3193C40.2143 10.5273 40.2357 10.7391 40.3056 10.9371C40.6595 11.9275 40.7701 12.9884 40.6282 14.0305C40.4863 15.0726 40.096 16.0653 39.4902 16.925C38.8845 17.7847 38.0809 18.4863 37.1473 18.9705C36.2137 19.4548 35.1774 19.7075 34.1257 19.7075C33.074 19.7075 32.0377 19.4548 31.1041 18.9705C30.1705 18.4863 29.367 17.7847 28.7612 16.925C28.1554 16.0653 27.7651 15.0726 27.6232 14.0305C27.4813 12.9884 27.592 11.9275 27.9458 10.9371C28.0157 10.7391 28.0371 10.5273 28.0082 10.3193C27.9793 10.1114 27.901 9.91339 27.7797 9.742C27.6585 9.57061 27.4979 9.4308 27.3114 9.33432C27.1249 9.23783 26.9181 9.18748 26.7081 9.1875H15.7501C14.7058 9.1875 13.7042 9.60234 12.9658 10.3408C12.2274 11.0792 11.8126 12.0807 11.8126 13.125V22.4109C10.5071 22.2189 9.17558 22.3104 7.90863 22.6791C6.64167 23.0478 5.469 23.685 4.47038 24.5475C3.47177 25.41 2.67066 26.4775 2.12155 27.6773C1.57243 28.8771 1.28821 30.1811 1.28821 31.5007C1.28821 32.8202 1.57243 34.1242 2.12155 35.324C2.67066 36.5238 3.47177 37.5913 4.47038 38.4538C5.469 39.3163 6.64167 39.9536 7.90863 40.3222C9.17558 40.6909 10.5071 40.7824 11.8126 40.5904V49.875C11.8126 50.9193 12.2274 51.9208 12.9658 52.6592C13.7042 53.3977 14.7058 53.8125 15.7501 53.8125H26.7081C26.9181 53.8125 27.1249 53.7622 27.3114 53.6657C27.4979 53.5692 27.6585 53.4294 27.7797 53.258C27.901 53.0866 27.9793 52.8886 28.0082 52.6807C28.0371 52.4727 28.0157 52.2609 27.9458 52.0629C27.47 50.746 27.4359 49.3099 27.8487 47.9719C28.0869 47.1176 28.4959 46.3206 29.0507 45.6288C29.6056 44.937 30.295 44.3649 31.0772 43.9469C31.8593 43.529 32.7181 43.2739 33.6016 43.1971C34.4851 43.1203 35.375 43.2234 36.2175 43.5001C37.0601 43.7768 37.8378 44.2214 38.5038 44.8071C39.1697 45.3927 39.71 46.1073 40.0921 46.9076C40.4742 47.7079 40.6901 48.5773 40.7268 49.4634C40.7635 50.3495 40.6202 51.2338 40.3056 52.0629C40.2357 52.2609 40.2143 52.4727 40.2432 52.6807C40.2721 52.8886 40.3505 53.0866 40.4717 53.258C40.593 53.4294 40.7536 53.5692 40.94 53.6657C41.1265 53.7622 41.3334 53.8125 41.5433 53.8125H52.5001C53.5443 53.8125 54.5459 53.3977 55.2843 52.6592C56.0227 51.9208 56.4376 50.9193 56.4376 49.875V40.5904C57.8795 40.7992 59.3504 40.6621 60.7289 40.1905C62.1073 39.7188 63.3539 38.926 64.3656 37.8776C65.3773 36.8293 66.1252 35.5553 66.5476 34.1609C66.9699 32.7665 67.0545 31.2916 66.7945 29.8581ZM55.5634 37.6793C55.3654 37.6091 55.1534 37.5875 54.9453 37.6162C54.7372 37.645 54.539 37.7233 54.3674 37.8446C54.1959 37.9659 54.0559 38.1266 53.9594 38.3132C53.8628 38.4998 53.8125 38.7068 53.8126 38.9169V49.875C53.8126 50.2231 53.6743 50.5569 53.4281 50.8031C53.182 51.0492 52.8482 51.1875 52.5001 51.1875H43.2167C43.2807 50.7529 43.3127 50.3143 43.3126 49.875C43.3177 48.6099 43.0615 47.3574 42.56 46.1959C42.0585 45.0345 41.3226 43.9891 40.3983 43.1253C39.474 42.2615 38.3812 41.5979 37.1885 41.1761C35.9958 40.7543 34.7288 40.5833 33.467 40.6739C32.2051 40.7646 30.9756 41.1148 29.8554 41.7027C28.7352 42.2907 27.7485 43.1036 26.9572 44.0906C26.1658 45.0776 25.5868 46.2174 25.2564 47.4387C24.9261 48.6599 24.8515 49.9361 25.0373 51.1875H15.7501C15.402 51.1875 15.0681 51.0492 14.822 50.8031C14.5758 50.5569 14.4376 50.2231 14.4376 49.875V38.9169C14.4376 38.707 14.3872 38.5001 14.2907 38.3137C14.1943 38.1272 14.0545 37.9666 13.8831 37.8454C13.7117 37.7241 13.5137 37.6457 13.3057 37.6168C13.0978 37.5879 12.886 37.6093 12.688 37.6793C11.6975 38.0335 10.6365 38.1444 9.59419 38.0027C8.5519 37.861 7.55894 37.4708 6.699 36.8651C5.83905 36.2593 5.13731 35.4557 4.65292 34.522C4.16853 33.5883 3.91568 32.5519 3.91568 31.5C3.91568 30.4481 4.16853 29.4117 4.65292 28.478C5.13731 27.5443 5.83905 26.7407 6.699 26.1349C7.55894 25.5292 8.5519 25.139 9.59419 24.9973C10.6365 24.8556 11.6975 24.9665 12.688 25.3207C12.886 25.3907 13.0978 25.4121 13.3057 25.3832C13.5137 25.3543 13.7117 25.2759 13.8831 25.1546C14.0545 25.0334 14.1943 24.8728 14.2907 24.6863C14.3872 24.4999 14.4376 24.293 14.4376 24.0831V13.125C14.4376 12.7769 14.5758 12.4431 14.822 12.1969C15.0681 11.9508 15.402 11.8125 15.7501 11.8125H25.0347C24.9703 12.247 24.9378 12.6857 24.9376 13.125C24.9336 14.3894 25.1907 15.6409 25.6927 16.8014C26.1947 17.9618 26.9309 19.0061 27.855 19.869C28.7792 20.7318 29.8715 21.3947 31.0636 21.816C32.2557 22.2373 33.522 22.408 34.7831 22.3174C36.0442 22.2268 37.2731 21.877 38.3927 21.2896C39.5124 20.7023 40.4988 19.8902 41.2902 18.9042C42.0816 17.9181 42.661 16.7793 42.992 15.559C43.323 14.3388 43.3987 13.0633 43.2141 11.8125H52.5001C52.8482 11.8125 53.182 11.9508 53.4281 12.1969C53.6743 12.4431 53.8126 12.7769 53.8126 13.125V24.0831C53.8125 24.2932 53.8628 24.5002 53.9594 24.6868C54.0559 24.8734 54.1959 25.0341 54.3674 25.1554C54.539 25.2767 54.7372 25.355 54.9453 25.3838C55.1534 25.4125 55.3654 25.3909 55.5634 25.3207C56.5539 24.9665 57.6149 24.8556 58.6572 24.9973C59.6995 25.139 60.6925 25.5292 61.5524 26.1349C62.4124 26.7407 63.1141 27.5443 63.5985 28.478C64.0829 29.4117 64.3357 30.4481 64.3357 31.5C64.3357 32.5519 64.0829 33.5883 63.5985 34.522C63.1141 35.4557 62.4124 36.2593 61.5524 36.8651C60.6925 37.4708 59.6995 37.861 58.6572 38.0027C57.6149 38.1444 56.5539 38.0335 55.5634 37.6793Z" fill="black"/>
</svg>
