<svg width="68" height="68" viewBox="0 0 68 68" fill="none" xmlns="http://www.w3.org/2000/svg">
<path d="M15.4062 49.9375H38.8344V56.3125H15.4062V49.9375Z" fill="#ED4A25"/>
<path d="M33.5399 34H28.1562V47.8125H43.3086C40.4568 45.2189 35.7 40.2039 33.5399 34Z" fill="#ED4A25"/>
<path d="M40.9594 66.9375H46.6246L51.6428 56.9001C51.731 56.7234 51.8668 56.5749 52.0347 56.4711C52.2027 56.3673 52.3963 56.3124 52.5937 56.3125H66.4062V49.9375H40.9594V66.9375Z" fill="#ED4A25"/>
<path d="M49.0004 66.9375H63.2187C64.0641 66.9375 64.8749 66.6017 65.4726 66.0039C66.0704 65.4061 66.4062 64.5954 66.4062 63.75V58.4375H53.2504L49.0004 66.9375Z" fill="#ED4A25"/>
<path d="M15.4062 63.75C15.4062 64.5954 15.7421 65.4061 16.3398 66.0039C16.9376 66.6017 17.7484 66.9375 18.5938 66.9375H38.8344V58.4375H15.4062V63.75Z" fill="#ED4A25"/>
<path d="M26.0312 34H18.5938C17.7484 34 16.9376 34.3358 16.3398 34.9336C15.7421 35.5314 15.4062 36.3421 15.4062 37.1875V47.8125H26.0312V34Z" fill="#ED4A25"/>
<path d="M63.2187 34H58.8975C56.7353 40.2039 51.9807 45.2189 49.1289 47.8125H66.4062V37.1875C66.4062 36.3421 66.0704 35.5314 65.4726 34.9336C64.8748 34.3358 64.0641 34 63.2187 34Z" fill="#ED4A25"/>
<path d="M45.5207 46.92C45.7142 47.0886 45.9621 47.1815 46.2188 47.1815C46.4754 47.1815 46.7233 47.0886 46.9168 46.92C50.2212 44.0406 57.9062 36.3959 57.9062 27.625C57.9062 24.5253 56.6749 21.5525 54.4831 19.3607C52.2912 17.1689 49.3185 15.9375 46.2188 15.9375C43.119 15.9375 40.1463 17.1689 37.9544 19.3607C35.7626 21.5525 34.5313 24.5253 34.5313 27.625C34.5312 36.3959 42.2163 44.0406 45.5207 46.92ZM41.9688 27.625C41.9688 26.7844 42.218 25.9627 42.685 25.2638C43.152 24.5649 43.8158 24.0202 44.5923 23.6985C45.3689 23.3768 46.2235 23.2927 47.0479 23.4567C47.8723 23.6206 48.6296 24.0254 49.224 24.6198C49.8183 25.2142 50.2231 25.9714 50.3871 26.7959C50.5511 27.6203 50.4669 28.4748 50.1452 29.2514C49.8236 30.028 49.2788 30.6917 48.5799 31.1587C47.881 31.6257 47.0593 31.875 46.2188 31.875C45.0916 31.875 44.0106 31.4272 43.2135 30.6302C42.4165 29.8332 41.9688 28.7522 41.9688 27.625Z" fill="#ED4A25"/>
<path d="M51.5312 1.0625H21.7812C20.9359 1.0625 20.1251 1.39832 19.5273 1.9961C18.9296 2.59387 18.5938 3.40462 18.5938 4.25V12.75H8.2195C7.62719 12.7479 7.04616 12.9119 6.5423 13.2232C6.03843 13.5346 5.6319 13.981 5.36881 14.5116L1.9295 21.3892C1.70908 21.8318 1.59416 22.3195 1.59375 22.814V32.9375C1.59375 33.7829 1.92958 34.5936 2.52735 35.1914C3.12512 35.7892 3.93587 36.125 4.78125 36.125H7.0125C7.25636 37.3259 7.9079 38.4056 8.85673 39.1812C9.80555 39.9567 10.9933 40.3803 12.2188 40.3803C13.4442 40.3803 14.6319 39.9567 15.5808 39.1812C16.5296 38.4056 17.1811 37.3259 17.425 36.125H38.8875C39.1314 37.3259 39.7829 38.4056 40.7317 39.1812C41.6806 39.9567 42.8683 40.3803 44.0938 40.3803C45.3192 40.3803 46.5069 39.9567 47.4558 39.1812C48.4046 38.4056 49.0561 37.3259 49.3 36.125H51.5312C52.3766 36.125 53.1874 35.7892 53.7852 35.1914C54.3829 34.5936 54.7188 33.7829 54.7188 32.9375V4.25C54.7188 3.40462 54.3829 2.59387 53.7852 1.9961C53.1874 1.39832 52.3766 1.0625 51.5312 1.0625ZM20.7188 4.25C20.7188 3.96821 20.8307 3.69796 21.0299 3.4987C21.2292 3.29944 21.4995 3.1875 21.7812 3.1875H51.5312C51.813 3.1875 52.0833 3.29944 52.2826 3.4987C52.4818 3.69796 52.5938 3.96821 52.5938 4.25V29.75H20.7188V4.25ZM38.8875 34H17.425C17.2611 33.2269 16.9252 32.5006 16.4422 31.875H39.8714C39.388 32.5005 39.0517 33.2268 38.8875 34ZM18.5938 29.75H3.71875V24.4375H12.2188C13.0641 24.4375 13.8749 24.1017 14.4727 23.5039C15.0704 22.9061 15.4062 22.0954 15.4062 21.25V14.875H18.5938V29.75ZM7.26963 15.4626C7.35721 15.2856 7.49264 15.1368 7.66054 15.0329C7.82843 14.9291 8.02208 14.8744 8.2195 14.875H13.2812V21.25C13.2812 21.5318 13.1693 21.802 12.9701 22.0013C12.7708 22.2006 12.5005 22.3125 12.2188 22.3125H3.84413L7.26963 15.4626ZM3.71875 32.9375V31.875H7.99638C7.51301 32.5005 7.17673 33.2268 7.0125 34H4.78125C4.49946 34 4.22921 33.8881 4.02995 33.6888C3.83069 33.4895 3.71875 33.2193 3.71875 32.9375ZM12.2188 38.25C11.5883 38.25 10.9721 38.0631 10.4479 37.7128C9.92369 37.3626 9.51514 36.8647 9.27388 36.2823C9.03263 35.6999 8.96951 35.059 9.0925 34.4407C9.21549 33.8223 9.51907 33.2544 9.96485 32.8086C10.4106 32.3628 10.9786 32.0592 11.5969 31.9362C12.2152 31.8133 12.8561 31.8764 13.4386 32.1176C14.021 32.3589 14.5188 32.7674 14.8691 33.2916C15.2193 33.8158 15.4062 34.4321 15.4062 35.0625C15.4062 35.9079 15.0704 36.7186 14.4727 37.3164C13.8749 37.9142 13.0641 38.25 12.2188 38.25ZM44.0938 38.25C43.4633 38.25 42.8471 38.0631 42.3229 37.7128C41.7987 37.3626 41.3901 36.8647 41.1489 36.2823C40.9076 35.6999 40.8445 35.059 40.9675 34.4407C41.0905 33.8223 41.3941 33.2544 41.8398 32.8086C42.2856 32.3628 42.8536 32.0592 43.4719 31.9362C44.0902 31.8133 44.7311 31.8764 45.3136 32.1176C45.896 32.3589 46.3938 32.7674 46.7441 33.2916C47.0943 33.8158 47.2812 34.4321 47.2812 35.0625C47.2812 35.9079 46.9454 36.7186 46.3477 37.3164C45.7499 37.9142 44.9391 38.25 44.0938 38.25ZM52.5938 32.9375C52.5938 33.2193 52.4818 33.4895 52.2826 33.6888C52.0833 33.8881 51.813 34 51.5312 34H49.3C49.1361 33.2269 48.8002 32.5006 48.3172 31.875H52.5938V32.9375Z" fill="black"/>
</svg>
