<svg width="68" height="68" viewBox="0 0 68 68" fill="none" xmlns="http://www.w3.org/2000/svg">
<path d="M44.7578 35.2952L48.3438 38.1639V22.3125H39.8438V38.1639L43.4297 35.2952C43.6181 35.1443 43.8523 35.0621 44.0938 35.0621C44.3352 35.0621 44.5694 35.1443 44.7578 35.2952Z" fill="#ED4A25"/>
<path d="M63.2188 22.3125H50.4688V40.375C50.4688 40.5752 50.4123 40.7714 50.3058 40.9409C50.1992 41.1104 50.047 41.2463 49.8665 41.333C49.6861 41.4198 49.4848 41.4537 49.2859 41.4311C49.0869 41.4084 48.8985 41.3299 48.7422 41.2048L44.0938 37.485L39.4453 41.2037C39.2891 41.3288 39.1007 41.4072 38.9019 41.43C38.7031 41.4527 38.5019 41.4188 38.3215 41.3322C38.1411 41.2456 37.9888 41.1098 37.8821 40.9405C37.7755 40.7711 37.7189 40.5751 37.7188 40.375V22.3125H24.9688C24.1234 22.3125 23.3126 22.6483 22.7148 23.2461C22.1171 23.8439 21.7813 24.6546 21.7812 25.5V63.75C21.7813 64.5954 22.1171 65.4061 22.7148 66.0039C23.3126 66.6017 24.1234 66.9375 24.9688 66.9375H63.2188C64.0641 66.9375 64.8749 66.6017 65.4727 66.0039C66.0704 65.4061 66.4062 64.5954 66.4062 63.75V25.5C66.4062 24.6546 66.0704 23.8439 65.4727 23.2461C64.8749 22.6483 64.0641 22.3125 63.2188 22.3125ZM60.0312 61.625H51.5312C51.2495 61.625 50.9792 61.5131 50.7799 61.3138C50.5807 61.1145 50.4688 60.8443 50.4688 60.5625C50.4688 60.2807 50.5807 60.0105 50.7799 59.8112C50.9792 59.6119 51.2495 59.5 51.5312 59.5H60.0312C60.313 59.5 60.5833 59.6119 60.7826 59.8112C60.9818 60.0105 61.0938 60.2807 61.0938 60.5625C61.0938 60.8443 60.9818 61.1145 60.7826 61.3138C60.5833 61.5131 60.313 61.625 60.0312 61.625ZM60.0312 56.3125H51.5312C51.2495 56.3125 50.9792 56.2006 50.7799 56.0013C50.5807 55.802 50.4688 55.5318 50.4688 55.25C50.4688 54.9682 50.5807 54.698 50.7799 54.4987C50.9792 54.2994 51.2495 54.1875 51.5312 54.1875H60.0312C60.313 54.1875 60.5833 54.2994 60.7826 54.4987C60.9818 54.698 61.0938 54.9682 61.0938 55.25C61.0938 55.5318 60.9818 55.802 60.7826 56.0013C60.5833 56.2006 60.313 56.3125 60.0312 56.3125Z" fill="#ED4A25"/>
<path d="M46.2188 23.375C46.2188 17.4574 43.868 11.7821 39.6836 7.59768C35.4992 3.41327 29.8239 1.0625 23.9062 1.0625C17.9886 1.0625 12.3133 3.41327 8.12893 7.59768C3.94452 11.7821 1.59375 17.4574 1.59375 23.375C1.59455 23.5553 1.64156 23.7324 1.73028 23.8894C1.81901 24.0464 1.94649 24.178 2.10056 24.2717C2.10056 24.2717 2.10056 24.2834 2.10906 24.2856L20.0706 35.0625H17.5312C16.6859 35.0625 15.8751 35.3983 15.2773 35.9961C14.6796 36.5939 14.3438 37.4046 14.3438 38.25V51C14.3438 51.8454 14.6796 52.6561 15.2773 53.2539C15.8751 53.8517 16.6859 54.1875 17.5312 54.1875H30.2812C31.1266 54.1875 31.9374 53.8517 32.5352 53.2539C33.1329 52.6561 33.4688 51.8454 33.4688 51V38.25C33.4688 37.4046 33.1329 36.5939 32.5352 35.9961C31.9374 35.3983 31.1266 35.0625 30.2812 35.0625H27.7419L45.7034 24.2856C45.7034 24.2856 45.7034 24.2749 45.7119 24.2717C45.866 24.178 45.9935 24.0464 46.0822 23.8894C46.1709 23.7324 46.2179 23.5553 46.2188 23.375ZM21.7812 37.1875H26.0312V42.6403L24.4959 41.616C24.3213 41.4995 24.1161 41.4373 23.9062 41.4373C23.6964 41.4373 23.4912 41.4995 23.3166 41.616L21.7812 42.6403V37.1875ZM23.9062 3.1875C27.2616 3.1875 30.9708 10.7376 31.3087 21.7547C26.5596 19.8393 21.2529 19.8393 16.5038 21.7547C16.8417 10.7376 20.5509 3.1875 23.9062 3.1875ZM17 23.8478C19.1889 22.9383 21.5359 22.4701 23.9062 22.4701C26.2766 22.4701 28.6236 22.9383 30.8125 23.8478L23.9062 34.2125L17 23.8478ZM14.6625 24.1666L20.4 32.7802L4.794 23.4186C6.37152 22.7127 8.10025 22.4118 9.82349 22.5429C11.5467 22.6741 13.21 23.2333 14.6625 24.1697V24.1666ZM33.1564 24.1666C34.6085 23.2306 36.2712 22.6718 37.9938 22.5406C39.7164 22.4095 41.4446 22.7101 43.0217 23.4154L27.4125 32.7834L33.1564 24.1666ZM44.0087 21.5209C42.3476 20.759 40.5395 20.3707 38.712 20.3834C36.8845 20.396 35.082 20.8094 33.4316 21.5942C33.1776 13.7881 31.2821 7.22075 28.5164 3.74425C32.6338 4.71425 36.3433 6.95124 39.1225 10.1402C41.9017 13.3292 43.6106 17.3096 44.0087 21.5209ZM19.2961 3.74106C16.5336 7.22075 14.6349 13.7881 14.3809 21.5911C12.7305 20.8062 10.928 20.3929 9.10048 20.3802C7.27297 20.3675 5.46491 20.7558 3.80375 21.5178C4.20187 17.3064 5.91085 13.3261 8.69005 10.1371C11.4693 6.94805 15.1787 4.71106 19.2961 3.74106ZM31.3438 38.25V51C31.3438 51.2818 31.2318 51.552 31.0326 51.7513C30.8333 51.9506 30.563 52.0625 30.2812 52.0625H17.5312C17.2495 52.0625 16.9792 51.9506 16.7799 51.7513C16.5807 51.552 16.4688 51.2818 16.4688 51V38.25C16.4688 37.9682 16.5807 37.698 16.7799 37.4987C16.9792 37.2994 17.2495 37.1875 17.5312 37.1875H19.6562V44.625C19.6562 44.8174 19.7084 45.0061 19.8073 45.1711C19.9061 45.3362 20.0479 45.4712 20.2175 45.562C20.3871 45.6527 20.5782 45.6957 20.7703 45.6864C20.9624 45.6771 21.1484 45.6158 21.3084 45.509L23.9062 43.775L26.5041 45.5069C26.6639 45.6135 26.8497 45.6748 27.0417 45.6843C27.2336 45.6937 27.4245 45.6509 27.5941 45.5604C27.7636 45.4699 27.9054 45.3351 28.0044 45.1704C28.1034 45.0057 28.1559 44.8172 28.1562 44.625V37.1875H30.2812C30.563 37.1875 30.8333 37.2994 31.0326 37.4987C31.2318 37.698 31.3438 37.9682 31.3438 38.25Z" fill="black"/>
</svg>
