<svg width="68" height="68" viewBox="0 0 68 68" fill="none" xmlns="http://www.w3.org/2000/svg">
<path d="M63.75 32.9375H36.125C35.2799 32.9384 34.4697 33.2745 33.8721 33.8721C33.2745 34.4697 32.9384 35.2799 32.9375 36.125V63.75C32.9384 64.5951 33.2745 65.4053 33.8721 66.0029C34.4697 66.6005 35.2799 66.9366 36.125 66.9375H63.75C64.5951 66.9366 65.4053 66.6005 66.0029 66.0029C66.6005 65.4053 66.9366 64.5951 66.9375 63.75V36.125C66.9366 35.2799 66.6005 34.4697 66.0029 33.8721C65.4053 33.2745 64.5951 32.9384 63.75 32.9375ZM44.625 39.3125V36.125C44.625 35.8432 44.7369 35.573 44.9362 35.3737C45.1355 35.1744 45.4057 35.0625 45.6875 35.0625C45.9693 35.0625 46.2395 35.1744 46.4388 35.3737C46.6381 35.573 46.75 35.8432 46.75 36.125V38.25H53.125V36.125C53.125 35.8432 53.2369 35.573 53.4362 35.3737C53.6355 35.1744 53.9057 35.0625 54.1875 35.0625C54.4693 35.0625 54.7395 35.1744 54.9388 35.3737C55.1381 35.573 55.25 35.8432 55.25 36.125V39.3125C55.25 39.452 55.2226 39.5902 55.1692 39.7191C55.1158 39.8481 55.0376 39.9652 54.9389 40.0639C54.8402 40.1626 54.7231 40.2408 54.5941 40.2942C54.4652 40.3476 54.327 40.375 54.1875 40.375H45.6875C45.548 40.375 45.4098 40.3476 45.2809 40.2942C45.1519 40.2408 45.0348 40.1626 44.9361 40.0639C44.8374 39.9652 44.7592 39.8481 44.7058 39.7191C44.6524 39.5902 44.625 39.452 44.625 39.3125ZM59.5 61.625H53.125C52.8432 61.625 52.573 61.5131 52.3737 61.3138C52.1744 61.1145 52.0625 60.8443 52.0625 60.5625C52.0625 60.2807 52.1744 60.0105 52.3737 59.8112C52.573 59.6119 52.8432 59.5 53.125 59.5H59.5C59.7818 59.5 60.052 59.6119 60.2513 59.8112C60.4506 60.0105 60.5625 60.2807 60.5625 60.5625C60.5625 60.8443 60.4506 61.1145 60.2513 61.3138C60.052 61.5131 59.7818 61.625 59.5 61.625ZM59.5 57.375H49.9375C49.6557 57.375 49.3855 57.2631 49.1862 57.0638C48.9869 56.8645 48.875 56.5943 48.875 56.3125C48.875 56.0307 48.9869 55.7605 49.1862 55.5612C49.3855 55.3619 49.6557 55.25 49.9375 55.25H59.5C59.7818 55.25 60.052 55.3619 60.2513 55.5612C60.4506 55.7605 60.5625 56.0307 60.5625 56.3125C60.5625 56.5943 60.4506 56.8645 60.2513 57.0638C60.052 57.2631 59.7818 57.375 59.5 57.375Z" fill="#ED4A25"/>
<path d="M51.2761 18.6478C51.437 14.7205 50.8364 13.5189 47.1952 11.6207C45.0136 10.4816 44.7825 10.252 43.6425 8.06744C41.7507 4.43997 40.5742 3.82976 36.6149 3.98656C34.1042 4.08386 33.7987 3.99146 31.776 2.70357C28.354 0.524047 26.9361 0.50692 23.4872 2.70357C21.4705 3.98763 21.1495 4.08859 18.6494 3.98601C14.6617 3.82538 13.4973 4.4686 11.6207 8.06688C10.4824 10.2493 10.2467 10.4833 8.06796 11.6196C4.47272 13.4953 3.82455 14.6573 3.98656 18.6483C4.08815 21.1581 3.9836 21.4763 2.70357 23.4866C0.524047 26.9086 0.50692 28.3266 2.70357 31.7755C3.99075 33.7971 4.08723 34.1149 3.98604 36.6133C3.82368 40.613 4.48248 41.7726 8.06692 43.642C10.2494 44.7802 10.4833 45.016 11.6196 47.1947C13.5119 50.8216 14.7044 51.439 18.6483 51.2761C21.1456 51.1776 21.455 51.2655 23.4867 52.5591C26.9087 54.7386 28.3266 54.7558 31.7755 52.5591C33.791 51.2758 34.1164 51.1728 36.6138 51.2767C40.5359 51.4345 41.7367 50.8454 43.6425 47.1953C44.7813 45.0143 45.0138 44.7794 47.1952 43.6431C50.7995 41.7612 51.4364 40.5968 51.2761 36.6144C51.1765 34.1209 51.265 33.8082 52.5585 31.7766C54.7481 28.3396 54.7475 26.9242 52.5596 23.4867C51.2681 21.4625 51.1764 21.1437 51.2761 18.6478ZM50.7667 30.6352C49.254 33.0113 49.0333 33.7354 49.1532 36.6999C49.279 39.849 49.0568 40.2754 46.2116 41.7587C45.2045 42.1575 44.2898 42.7584 43.5239 43.5244C42.7579 44.2903 42.157 45.205 41.7582 46.2121C40.2744 49.0582 39.843 49.2834 36.6989 49.1532C33.7467 49.032 33.014 49.2513 30.6336 50.7672C27.9101 52.5013 27.3563 52.5043 24.628 50.7666C22.2706 49.2645 21.549 49.0323 18.5622 49.1532C15.4105 49.2776 14.9875 49.0577 13.5039 46.2121C13.1052 45.2047 12.5042 44.2897 11.7381 43.5235C10.972 42.7574 10.057 42.1564 9.04953 41.7577C6.21584 40.2796 5.98059 39.8584 6.10949 36.6989C6.22947 33.7335 6.00781 33.0083 4.49556 30.6336C2.76141 27.9101 2.75844 27.3563 4.49608 24.628C6.0035 22.2624 6.22956 21.5312 6.10955 18.5622C5.98238 15.4139 6.20672 14.9866 9.05061 13.5039C10.058 13.1052 10.973 12.5042 11.7392 11.7381C12.5053 10.972 13.1062 10.057 13.505 9.04953C14.9856 6.21104 15.4146 5.9786 18.5638 6.10949C21.5193 6.22645 22.2411 6.01624 24.6291 4.49556C27.3526 2.76141 27.9064 2.75844 30.6347 4.49608C33.0055 6.00678 33.7305 6.22706 36.6999 6.10955C39.8539 5.98504 40.2746 6.20589 41.7582 9.05009C42.1566 10.0577 42.7575 10.9729 43.5237 11.7391C44.2898 12.5052 45.205 13.1061 46.2126 13.5045C49.0524 14.9851 49.2817 15.4143 49.1532 18.5623C49.0333 21.5264 49.2536 22.2513 50.7667 24.6281C52.5029 27.3562 52.5029 27.9069 50.7667 30.6352Z" fill="black"/>
<path d="M27.6314 7.44385C23.6386 7.44385 19.7356 8.62782 16.4158 10.8461C13.096 13.0643 10.5085 16.2171 8.98054 19.9059C7.45259 23.5947 7.05281 27.6537 7.83175 31.5697C8.61069 35.4857 10.5334 39.0828 13.3566 41.9061C16.1799 44.7293 19.777 46.652 23.693 47.4309C27.609 48.2099 31.668 47.8101 35.3568 46.2822C39.0456 44.7542 42.1984 42.1667 44.4166 38.8469C46.6349 35.5271 47.8189 31.6241 47.8189 27.6313C47.8128 22.2792 45.6839 17.1479 41.8994 13.3633C38.1148 9.57876 32.9836 7.44992 27.6314 7.44385ZM27.6314 45.6938C24.0589 45.6938 20.5667 44.6345 17.5964 42.6498C14.626 40.665 12.3109 37.8441 10.9438 34.5436C9.57667 31.2431 9.21898 27.6113 9.91592 24.1075C10.6129 20.6037 12.3332 17.3853 14.8592 14.8592C17.3853 12.3331 20.6038 10.6129 24.1075 9.91591C27.6113 9.21897 31.2431 9.57667 34.5436 10.9438C37.8441 12.3109 40.665 14.626 42.6498 17.5964C44.6345 20.5667 45.6939 24.0589 45.6939 27.6313C45.6885 32.4202 43.7838 37.0113 40.3976 40.3976C37.0114 43.7838 32.4202 45.6885 27.6314 45.6938Z" fill="black"/>
<path d="M32.0946 17.0894C31.966 17.0352 31.828 17.007 31.6884 17.0062C31.5489 17.0055 31.4106 17.0323 31.2814 17.085C31.1522 17.1378 31.0347 17.2155 30.9356 17.3137C30.8364 17.412 30.7577 17.5288 30.7037 17.6575L22.8538 36.3628C22.7997 36.4914 22.7716 36.6294 22.7709 36.7689C22.7702 36.9084 22.797 37.0467 22.8497 37.1759C22.9025 37.305 22.9802 37.4225 23.0783 37.5217C23.1765 37.6208 23.2932 37.6996 23.4219 37.7537C23.5505 37.8077 23.6885 37.8359 23.828 37.8365C23.9675 37.8372 24.1058 37.8104 24.235 37.7577C24.3641 37.7049 24.4816 37.6273 24.5808 37.5291C24.6799 37.4309 24.7587 37.3142 24.8127 37.1856L32.6627 18.4803C32.7718 18.2205 32.7732 17.928 32.6667 17.6672C32.5601 17.4063 32.3544 17.1985 32.0946 17.0894Z" fill="black"/>
<path d="M26.0688 22.0994C26.1374 20.8246 25.6998 19.5742 24.8512 18.6204C24.0026 17.6666 22.8117 17.0865 21.5376 17.0063C20.2634 17.0865 19.0725 17.6667 18.224 18.6205C17.3754 19.5742 16.9378 20.8246 17.0064 22.0994C16.9377 23.3742 17.3752 24.6247 18.2238 25.5786C19.0724 26.5325 20.2634 27.1127 21.5376 27.1929C22.8118 27.1127 24.0028 26.5325 24.8514 25.5786C25.6999 24.6247 26.1375 23.3742 26.0688 22.0994ZM21.5376 25.0679C20.8284 24.985 20.1798 24.6281 19.7302 24.0734C19.2806 23.5188 19.0657 22.8103 19.1314 22.0994C19.0658 21.3885 19.2807 20.6801 19.7303 20.1255C20.1799 19.5709 20.8285 19.2141 21.5376 19.1313C22.2467 19.2141 22.8953 19.5709 23.3449 20.1255C23.7945 20.6801 24.0094 21.3885 23.9438 22.0994C24.0094 22.8103 23.7945 23.5188 23.3449 24.0735C22.8953 24.6281 22.2467 24.985 21.5376 25.0679Z" fill="black"/>
<path d="M33.7251 28.0697C32.4509 28.15 31.2599 28.7302 30.4113 29.6841C29.5627 30.638 29.1252 31.8885 29.1939 33.1634C29.1253 34.4382 29.5629 35.6885 30.4115 36.6423C31.2601 37.5961 32.451 38.1762 33.7251 38.2564C34.9993 38.1762 36.1902 37.5961 37.0388 36.6423C37.8874 35.6885 38.325 34.4381 38.2563 33.1633C38.325 31.8884 37.8875 30.638 37.0389 29.6841C36.1903 28.7301 34.9993 28.15 33.7251 28.0697ZM33.7251 36.1314C33.016 36.0486 32.3674 35.6918 31.9178 35.1372C31.4682 34.5826 31.2533 33.8742 31.3189 33.1633C31.2532 32.4523 31.4681 31.7439 31.9177 31.1892C32.3673 30.6345 33.0159 30.2776 33.7251 30.1947C34.4343 30.2776 35.0829 30.6345 35.5325 31.1892C35.9821 31.7439 36.197 32.4523 36.1313 33.1633C36.197 33.8742 35.9821 34.5826 35.5325 35.1372C35.0829 35.6918 34.4342 36.0486 33.7251 36.1314Z" fill="black"/>
</svg>
