<svg width="26" height="26" viewBox="0 0 26 26" fill="none" xmlns="http://www.w3.org/2000/svg">
<g clip-path="url(#clip0_651_167)">
<path d="M20.1317 17.978L20.1426 9.06545C20.1431 8.66877 19.822 8.34689 19.4253 8.34636C19.0287 8.34588 18.7067 8.66702 18.7063 9.06365L18.6953 17.9772C18.6952 18.3731 18.3731 18.6953 17.9762 18.6953L9.0636 18.7063C8.66699 18.7068 8.34583 19.0287 8.34631 19.4254C8.34656 19.6234 8.42695 19.8026 8.5567 19.9323C8.68685 20.0625 8.86677 20.1429 9.06545 20.1427L17.9771 20.1317C19.1651 20.1317 20.1317 19.1651 20.1317 17.978Z" fill="#ED4A25"/>
<path d="M16.7329 15.7172L7.51565 6.49997C7.23516 6.21947 6.78044 6.2195 6.49997 6.49997C6.21951 6.78043 6.21948 7.23515 6.49997 7.51564L15.7172 16.7329C15.9977 17.0134 16.4524 17.0134 16.7329 16.7329C17.0134 16.4524 17.0134 15.9977 16.7329 15.7172Z" fill="#ED4A25"/>
</g>
<defs>
<clipPath id="clip0_651_167">
<rect width="18.3848" height="18.3848" fill="white" transform="translate(13 -6.10352e-05) rotate(45)"/>
</clipPath>
</defs>
</svg>
